<svg version="1.0" xmlns="http://www.w3.org/2000/svg"
 width="40px" height="40px" viewBox="0 0 1200.000000 1200.000000"
 preserveAspectRatio="xMidYMid meet">
<g transform="translate(0.000000,1200.000000) scale(0.100000,-0.100000)"
fill="blue" stroke="none">
<path d="M5230 11980 c-330 -46 -586 -99 -860 -176 -1021 -287 -1920 -818
-2661 -1571 -461 -469 -805 -946 -1089 -1513 -318 -636 -510 -1264 -600 -1965
-18 -145 -20 -215 -20 -755 0 -542 2 -609 21 -755 203 -1587 999 -2994 2254
-3986 518 -410 1141 -748 1777 -965 391 -133 828 -232 1223 -279 191 -22 1262
-22 1450 1 1085 129 2146 568 3000 1243 693 547 1270 1251 1653 2018 320 637
513 1270 602 1968 18 145 20 216 20 755 0 653 -4 707 -70 1075 -260 1450
-1045 2754 -2210 3671 -768 604 -1712 1026 -2665 1189 -377 65 -381 65 -1069
64 -545 -1 -648 -4 -756 -19z m-1050 -3465 l0 -675 -155 0 -155 0 5 -22 c2
-13 72 -468 155 -1013 83 -544 153 -1003 156 -1018 5 -26 9 -28 47 -25 l42 3
372 1640 c204 902 379 1673 388 1713 l16 72 1182 -2 1182 -3 359 -1712 360
-1713 43 0 c24 0 43 4 43 10 0 5 70 465 155 1022 85 557 155 1020 155 1030 0
16 -15 18 -152 20 l-153 3 -3 673 -2 672 1315 0 1315 0 -2 -672 -3 -673 -162
-3 c-143 -2 -162 -4 -167 -20 -3 -9 -276 -1133 -606 -2497 -331 -1364 -603
-2488 -606 -2498 -5 -16 -70 -17 -1232 -15 l-1226 3 -367 1744 c-203 960 -370
1755 -374 1768 -4 19 -12 23 -45 23 -34 0 -40 -3 -46 -26 -4 -14 -181 -810
-394 -1768 l-387 -1741 -1226 -3 c-1161 -2 -1226 -1 -1231 15 -5 15 -1272
4906 -1291 4986 l-7 27 -164 0 -164 0 0 675 0 675 1515 0 1515 0 0 -675z"/>
</g>
</svg>